<svg id="Layer_1" data-name="Layer 1" xmlns="http://www.w3.org/2000/svg" xmlns:xlink="http://www.w3.org/1999/xlink" viewBox="0 0 681.28 781.54"><defs><style>.cls-1{mask:url(#mask);}.cls-2{mix-blend-mode:multiply;fill:url(#linear-gradient);}.cls-3{fill:none;}.cls-4{fill:url(#linear-gradient-2);}.cls-5{fill:#1e1951;}.cls-21,.cls-6{opacity:0.2;}.cls-7{clip-path:url(#clip-path);}.cls-17,.cls-18,.cls-20,.cls-8{fill:#fff;}.cls-12,.cls-21,.cls-9{fill:#010101;}.cls-10{fill:#4d4d4e;}.cls-11{fill:url(#linear-gradient-3);}.cls-12{opacity:0.1;}.cls-13{mask:url(#mask-2);}.cls-14{fill:url(#linear-gradient-4);}.cls-15,.cls-20{opacity:0.3;}.cls-16{clip-path:url(#clip-path-2);}.cls-17{opacity:0.7;}.cls-18{opacity:0.8;}.cls-19{fill:#d8c3df;}.cls-22{filter:url(#luminosity-noclip-2);}.cls-23{filter:url(#luminosity-noclip);}</style><filter id="luminosity-noclip" x="107.8" y="-8613" width="385.86" height="32766" filterUnits="userSpaceOnUse" color-interpolation-filters="sRGB"><feFlood flood-color="#fff" result="bg"/><feBlend in="SourceGraphic" in2="bg"/></filter><mask id="mask" x="107.8" y="-8613" width="385.86" height="32766" maskUnits="userSpaceOnUse"><g class="cls-23"/></mask><linearGradient id="linear-gradient" x1="202.53" y1="768.14" x2="571.28" y2="399.38" gradientUnits="userSpaceOnUse"><stop offset="0"/><stop offset="0.27" stop-color="#fff"/><stop offset="1"/></linearGradient><linearGradient id="linear-gradient-2" x1="338.9" y1="705.84" x2="338.9" y2="217.55" gradientUnits="userSpaceOnUse"><stop offset="0.24" stop-color="#442f91"/><stop offset="0.29" stop-color="#4d3393"/><stop offset="0.47" stop-color="#6a3f98"/><stop offset="0.65" stop-color="#7e479b"/><stop offset="0.83" stop-color="#8b4c9d"/><stop offset="1" stop-color="#8f4e9e"/></linearGradient><clipPath id="clip-path" transform="translate(40.77 -33.3)"><rect class="cls-3" x="53.99" y="250.86" width="488.29" height="488.29" rx="68.23"/></clipPath><linearGradient id="linear-gradient-3" x1="338.9" y1="657.22" x2="338.9" y2="266.17" gradientUnits="userSpaceOnUse"><stop offset="0" stop-color="#754fa0"/><stop offset="0.14" stop-color="#8352a1"/><stop offset="1" stop-color="#d363a6"/></linearGradient><filter id="luminosity-noclip-2" x="107.8" y="310.52" width="385.86" height="380.01" filterUnits="userSpaceOnUse" color-interpolation-filters="sRGB"><feFlood flood-color="#fff" result="bg"/><feBlend in="SourceGraphic" in2="bg"/></filter><mask id="mask-2" x="148.57" y="277.21" width="385.86" height="380.01" maskUnits="userSpaceOnUse"><g class="cls-22"><g transform="translate(40.77 -33.3)"><g class="cls-1"><path class="cls-2" d="M482.42,310.52a37.82,37.82,0,0,1,5.2,19.13v315a38,38,0,0,1-38,38h-315a37.93,37.93,0,0,1-26.79-11,38,38,0,0,0,32.83,18.9h315a38,38,0,0,0,38-38v-315A37.9,37.9,0,0,0,482.42,310.52Z"/></g></g></g></mask><linearGradient id="linear-gradient-4" x1="202.53" y1="768.14" x2="571.28" y2="399.38" gradientUnits="userSpaceOnUse"><stop offset="0" stop-color="#cd9ec8"/><stop offset="0.27" stop-color="#cd9ec8"/><stop offset="1" stop-color="#cd9ec8"/></linearGradient><clipPath id="clip-path-2" transform="translate(40.77 -33.3)"><rect class="cls-3" x="102.6" y="299.47" width="391.06" height="391.06" rx="38.03"/></clipPath></defs><title>blue</title><g id="purple"><rect class="cls-4" x="94.75" y="217.55" width="488.29" height="488.29" rx="68.23"/><path class="cls-5" d="M474,250.86a68.24,68.24,0,0,1,68.24,68.23V670.91A68.24,68.24,0,0,1,474,739.14H122.22A68.23,68.23,0,0,1,54,670.91V319.09a68.23,68.23,0,0,1,68.23-68.23H474m0-9.37H122.22a77.69,77.69,0,0,0-77.6,77.6V670.91a77.69,77.69,0,0,0,77.6,77.6H474a77.69,77.69,0,0,0,77.6-77.6V319.09a77.69,77.69,0,0,0-77.6-77.6Z" transform="translate(40.77 -33.3)"/><g class="cls-6"><g class="cls-7"><ellipse class="cls-8" cx="338.9" cy="204.31" rx="186.49" ry="75.7"/><ellipse class="cls-9" cx="338.9" cy="705.84" rx="186.49" ry="75.7"/><path class="cls-10" d="M629.49,396.89c8,39.54-7.59,95.44-51,107.66-38.46,10.83-78.66-18.28-94.26-50.76-12.36-25.71-7.6-50-6.14-56.9,6.76-32,33.91-75.8,75.7-75.7C596.1,321.29,622.92,364.63,629.49,396.89Z" transform="translate(40.77 -33.3)"/><path class="cls-10" d="M96.48,480C58.27,493,.84,484.51-16.77,443c-15.61-36.79,8.19-80.34,38.43-99.93,24-15.51,48.66-13.85,55.68-13.28,32.61,2.66,79.47,24.06,84.66,65.52C167.25,437.3,127.64,469.38,96.48,480Z" transform="translate(40.77 -33.3)"/><path class="cls-9" d="M624.46,560.24c22.13,24.14,21.45,74.24-2.46,100.21-34.87,37.89-115.73,20.67-153.48-24.17-38.95-46.24-33.3-123.35-8.46-135.35,15.31-7.4,27.35,15.05,82.22,33.84C591.56,551.64,608.25,542.56,624.46,560.24Z" transform="translate(40.77 -33.3)"/><path class="cls-9" d="M142.11,518.87c28.2,16.65,42.13,64.78,26.82,96.59C146.59,661.85,64.22,668.91,15.05,637-35.66,604.09-52.7,528.67-32.43,510c12.49-11.54,30.55,6.44,88.51,8.44C108.14,520.21,121.46,506.67,142.11,518.87Z" transform="translate(40.77 -33.3)"/></g></g><rect class="cls-11" x="143.37" y="266.17" width="391.06" height="391.06" rx="38.03"/><path class="cls-12" d="M298.13,532.81c-76.61,0-145.84-23.23-195.53-60.64V652.5a38,38,0,0,0,38,38h315a38,38,0,0,0,38-38V472.17C444,509.58,374.75,532.81,298.13,532.81Z" transform="translate(40.77 -33.3)"/><g class="cls-13"><path class="cls-14" d="M482.42,310.52a37.82,37.82,0,0,1,5.2,19.13v315a38,38,0,0,1-38,38h-315a37.93,37.93,0,0,1-26.79-11,38,38,0,0,0,32.83,18.9h315a38,38,0,0,0,38-38v-315A37.9,37.9,0,0,0,482.42,310.52Z" transform="translate(40.77 -33.3)"/></g><g class="cls-15"><g class="cls-16"><ellipse class="cls-17" cx="336.03" cy="300.58" rx="182.45" ry="259.68" transform="translate(61.56 589.6) rotate(-87.45)"/><ellipse class="cls-8" cx="274.27" cy="215.94" rx="182.45" ry="259.68" transform="translate(87.1 447.03) rotate(-87.45)"/></g></g><path class="cls-18" d="M455.63,299.47h-315a38,38,0,0,0-38,38v9.07a38,38,0,0,1,38-38h315a38,38,0,0,1,38,38V337.5A38,38,0,0,0,455.63,299.47Z" transform="translate(40.77 -33.3)"/><circle class="cls-18" cx="459.83" cy="333.17" r="15.18" transform="translate(70.69 670.84) rotate(-76.72)"/><circle class="cls-18" cx="426.41" cy="325.58" r="7.59" transform="translate(-64.56 363.57) rotate(-45)"/><circle class="cls-18" cx="169.05" cy="297.68" r="7.59"/><circle class="cls-19" cx="511.7" cy="619.29" r="6.57"/><path class="cls-19" d="M457.3,668.78a5,5,0,1,1-5-5A5,5,0,0,1,457.3,668.78Z" transform="translate(40.77 -33.3)"/><path class="cls-20" d="M474,250.86H122.22A68.23,68.23,0,0,0,54,319.09v7a68.24,68.24,0,0,1,68.23-68.24H474A68.24,68.24,0,0,1,542.28,326v-7A68.24,68.24,0,0,0,474,250.86Z" transform="translate(40.77 -33.3)"/><path class="cls-21" d="M474,731.29H122.22A68.24,68.24,0,0,1,54,663.05v7.86a68.23,68.23,0,0,0,68.23,68.23H474a68.24,68.24,0,0,0,68.24-68.23v-7.86A68.24,68.24,0,0,1,474,731.29Z" transform="translate(40.77 -33.3)"/></g></svg>