<svg id="Layer_1" data-name="Layer 1" xmlns="http://www.w3.org/2000/svg" xmlns:xlink="http://www.w3.org/1999/xlink" viewBox="0 0 302.91 302.91"><defs><linearGradient id="linear-gradient" x1="160.36" y1="420.94" x2="434.92" y2="420.94" gradientUnits="userSpaceOnUse"><stop offset="0" stop-color="#3b1e9e"/><stop offset="0.24" stop-color="#3b1e9e"/><stop offset="0.39" stop-color="#5f27ac"/><stop offset="0.55" stop-color="#7c2fb7"/><stop offset="0.7" stop-color="#9035bf"/><stop offset="0.85" stop-color="#9d38c3"/><stop offset="1" stop-color="#a139c5"/></linearGradient></defs><title>fix-cross</title><path d="M233.8,420.94l-74.43-74.43a45.14,45.14,0,0,1,63.83-63.84l74.44,74.44,74.43-74.44a45.14,45.14,0,0,1,63.84,63.84l-74.44,74.43,74.44,74.44a45.14,45.14,0,0,1-63.84,63.84l-74.43-74.44L223.2,559.22a45.14,45.14,0,0,1-63.83-63.84Z" transform="translate(-146.18 -269.49)" style="fill:#fff;fill-rule:evenodd"/><path d="M169.39,505.4l84.45-84.46-84.45-84.45a31,31,0,0,1,43.79-43.8l84.46,84.46,84.46-84.46a31,31,0,0,1,43.79,43.8l-84.46,84.45,84.46,84.46a31,31,0,0,1-43.79,43.8l-84.46-84.46L213.18,549.2a31,31,0,0,1-43.79-43.8" transform="translate(-146.18 -269.49)" style="fill-rule:evenodd;fill:url(#linear-gradient)"/></svg>