<svg id="Layer_1" data-name="Layer 1" xmlns="http://www.w3.org/2000/svg" xmlns:xlink="http://www.w3.org/1999/xlink" viewBox="0 0 325.71 325.71"><defs><linearGradient id="linear-gradient" x1="134.78" y1="420.94" x2="460.49" y2="420.94" gradientUnits="userSpaceOnUse"><stop offset="0" stop-color="#3b1e9e"/><stop offset="0.24" stop-color="#3b1e9e"/><stop offset="0.39" stop-color="#5f27ac"/><stop offset="0.55" stop-color="#7c2fb7"/><stop offset="0.7" stop-color="#9035bf"/><stop offset="0.85" stop-color="#9d38c3"/><stop offset="1" stop-color="#a139c5"/></linearGradient></defs><title>fix-c</title><path d="M297.64,539.71A118.77,118.77,0,1,1,416.4,420.94,118.77,118.77,0,0,1,297.64,539.71m0-281.62A162.86,162.86,0,1,1,134.78,420.94,162.85,162.85,0,0,1,297.64,258.09Z" transform="translate(-134.78 -258.09)" style="fill-rule:evenodd;fill:url(#linear-gradient)"/><path d="M297.64,539.71A118.77,118.77,0,1,1,416.4,420.94,118.77,118.77,0,0,1,297.64,539.71m0-261.78a143,143,0,1,1-143,143A143,143,0,0,1,297.64,277.93Z" transform="translate(-134.78 -258.09)" style="fill:#fff;fill-rule:evenodd"/></svg>