<svg id="Layer_1" data-name="Layer 1" xmlns="http://www.w3.org/2000/svg" xmlns:xlink="http://www.w3.org/1999/xlink" viewBox="0 0 430.47 430.47"><defs><pattern id="Unnamed_Pattern" data-name="Unnamed Pattern" width="385.86" height="380.01" patternTransform="matrix(-0.85, 0, 0, 0.85, 15065.65, 903.08)" patternUnits="userSpaceOnUse" viewBox="0 0 385.86 380.01"><rect width="385.86" height="380.01" style="fill:none"/></pattern><linearGradient id="linear-gradient" x1="160.36" y1="420.94" x2="434.92" y2="420.94" gradientUnits="userSpaceOnUse"><stop offset="0.24" stop-color="#9b1d9f"/><stop offset="0.43" stop-color="#ad2984"/><stop offset="0.62" stop-color="#bb3270"/><stop offset="0.81" stop-color="#c33763"/><stop offset="1" stop-color="#c6395f"/></linearGradient><linearGradient id="linear-gradient-2" x1="90.36" y1="420.94" x2="504.92" y2="420.94" xlink:href="#linear-gradient"/><linearGradient id="linear-gradient-3" x1="147.46" y1="558.34" x2="173.24" y2="558.34" xlink:href="#linear-gradient"/><linearGradient id="linear-gradient-4" x1="182.29" y1="564.79" x2="195.18" y2="564.79" xlink:href="#linear-gradient"/><linearGradient id="linear-gradient-5" x1="435.4" y1="560.2" x2="448.29" y2="560.2" xlink:href="#linear-gradient"/><linearGradient id="linear-gradient-6" x1="90.36" y1="596.31" x2="504.92" y2="596.31" xlink:href="#linear-gradient"/><linearGradient id="linear-gradient-7" x1="90.36" y1="245.97" x2="504.92" y2="245.97" xlink:href="#linear-gradient"/><linearGradient id="linear-gradient-8" x1="90.36" y1="420.94" x2="504.92" y2="420.94" xlink:href="#linear-gradient"/><linearGradient id="linear-gradient-9" x1="131.63" y1="420.94" x2="463.64" y2="420.94" xlink:href="#linear-gradient"/><linearGradient id="linear-gradient-10" x1="131.63" y1="347.63" x2="463.64" y2="347.63" xlink:href="#linear-gradient"/><linearGradient id="linear-gradient-11" x1="131.63" y1="416.26" x2="459.23" y2="416.26" xlink:href="#linear-gradient"/><linearGradient id="linear-gradient-13" x1="131.63" y1="508.95" x2="463.64" y2="508.95" xlink:href="#linear-gradient"/><linearGradient id="linear-gradient-15" x1="131.63" y1="566.96" x2="463.64" y2="566.96" xlink:href="#linear-gradient"/><clipPath id="clip-path" transform="translate(-82.4 -205.71)"><path d="M169.39,505.4l84.45-84.46-84.45-84.45a31,31,0,0,1,43.79-43.8l84.46,84.46,84.46-84.46a31,31,0,0,1,43.79,43.8l-84.46,84.45,84.46,84.46a31,31,0,0,1-43.79,43.8l-84.46-84.46L213.18,549.2a31,31,0,0,1-43.79-43.8" style="fill:url(#linear-gradient);clip-rule:evenodd"/></clipPath><clipPath id="clip-path-2" transform="translate(-82.4 -205.71)"><path d="M447,213.66H148.29A57.93,57.93,0,0,0,90.36,271.6V570.29a57.93,57.93,0,0,0,57.93,57.94H447a57.94,57.94,0,0,0,57.93-57.94V271.6A57.94,57.94,0,0,0,447,213.66" style="fill:url(#linear-gradient-2);clip-rule:evenodd"/></clipPath><linearGradient id="linear-gradient-18" x1="215.23" y1="7.95" x2="215.23" y2="422.51" xlink:href="#linear-gradient"/><linearGradient id="linear-gradient-19" x1="82.4" y1="420.94" x2="512.87" y2="420.94" xlink:href="#linear-gradient"/><clipPath id="clip-path-3" transform="translate(-82.4 -205.71)"><rect x="90.36" y="213.66" width="414.56" height="414.56" style="fill:url(#linear-gradient-8)"/></clipPath><linearGradient id="linear-gradient-21" x1="141.88" y1="601.71" x2="453.39" y2="601.71" xlink:href="#linear-gradient"/><linearGradient id="linear-gradient-22" x1="139.33" y1="245.8" x2="455.95" y2="245.8" xlink:href="#linear-gradient"/><linearGradient id="linear-gradient-23" x1="90.36" y1="490.44" x2="146.65" y2="490.44" xlink:href="#linear-gradient"/><linearGradient id="linear-gradient-24" x1="412.82" y1="495.22" x2="504.92" y2="495.22" xlink:href="#linear-gradient"/><linearGradient id="linear-gradient-25" x1="90.36" y1="341.14" x2="176.89" y2="341.14" xlink:href="#linear-gradient"/><linearGradient id="linear-gradient-26" x1="401.97" y1="344.41" x2="504.92" y2="344.41" xlink:href="#linear-gradient"/><clipPath id="clip-path-4" transform="translate(-82.4 -205.71)"><path d="M431.36,254.94H163.92a32.29,32.29,0,0,0-32.29,32.29V554.66A32.29,32.29,0,0,0,163.92,587H431.36a32.29,32.29,0,0,0,32.28-32.29V287.23a32.28,32.28,0,0,0-32.28-32.29" style="fill:url(#linear-gradient-9);clip-rule:evenodd"/></clipPath><linearGradient id="linear-gradient-28" x1="215.23" y1="49.23" x2="215.23" y2="381.24" xlink:href="#linear-gradient"/><clipPath id="clip-path-5" transform="translate(-82.4 -205.71)"><rect x="131.63" y="254.94" width="332.01" height="185.38" style="fill:url(#linear-gradient-10)"/></clipPath><mask id="mask" x="-82.4" y="49.23" width="459.23" height="322.63" maskUnits="userSpaceOnUse"><g transform="translate(-82.4 -205.71)"><rect x="131.63" y="254.94" width="327.6" height="322.63" style="fill:#fff"/><rect x="131.63" y="254.94" width="327.6" height="322.63" style="fill:url(#Unnamed_Pattern)"/></g></mask><clipPath id="clip-path-6" transform="translate(-82.4 -205.71)"><rect x="131.63" y="254.94" width="327.6" height="322.63" style="fill:url(#linear-gradient-11)"/></clipPath><clipPath id="clip-path-7" transform="translate(-82.4 -205.71)"><path d="M131.63,287.23V554.66a32.18,32.18,0,0,0,9.54,22.91,32.15,32.15,0,0,1-4.41-16.24V293.9a32.29,32.29,0,0,1,32.29-32.29H436.49A32.16,32.16,0,0,1,459.23,271a32.25,32.25,0,0,0-27.88-16.05H163.92a32.29,32.29,0,0,0-32.29,32.29" style="fill:url(#linear-gradient-11);clip-rule:evenodd"/></clipPath><linearGradient id="linear-gradient-33" x1="319.29" y1="325.94" x2="6.22" y2="639.01" gradientTransform="translate(49.03 -270.68)" xlink:href="#linear-gradient"/><clipPath id="clip-path-8" transform="translate(-82.4 -205.71)"><rect x="131.63" y="430.94" width="332.01" height="156.01" style="fill:url(#linear-gradient-13)"/></clipPath><linearGradient id="linear-gradient-36" x1="131.63" y1="508.95" x2="463.64" y2="508.95" xlink:href="#linear-gradient"/><linearGradient id="linear-gradient-37" x1="134.44" y1="544.88" x2="463.64" y2="544.88" xlink:href="#linear-gradient"/><clipPath id="clip-path-10" transform="translate(-82.4 -205.71)"><rect x="131.63" y="546.97" width="332.01" height="39.98" style="fill:url(#linear-gradient-15)"/></clipPath><clipPath id="clip-path-11" transform="translate(-82.4 -205.71)"><rect x="147.46" y="545.45" width="25.78" height="25.78" style="fill:url(#linear-gradient-3)"/></clipPath><clipPath id="clip-path-12" transform="translate(-82.4 -205.71)"><rect x="182.29" y="558.34" width="12.89" height="12.89" style="fill:url(#linear-gradient-4)"/></clipPath><clipPath id="clip-path-13" transform="translate(-82.4 -205.71)"><rect x="435.4" y="553.75" width="12.89" height="12.89" style="fill:url(#linear-gradient-5)"/></clipPath><linearGradient id="linear-gradient-45" x1="435.4" y1="560.2" x2="448.29" y2="560.2" xlink:href="#linear-gradient"/><clipPath id="clip-path-14" transform="translate(-82.4 -205.71)"><rect x="90.36" y="564.39" width="414.56" height="63.83" style="fill:url(#linear-gradient-6)"/></clipPath><linearGradient id="linear-gradient-47" x1="90.36" y1="596.31" x2="504.92" y2="596.31" xlink:href="#linear-gradient"/><clipPath id="clip-path-15" transform="translate(-82.4 -205.71)"><rect x="90.36" y="213.66" width="414.56" height="64.6" style="fill:url(#linear-gradient-7)"/></clipPath></defs><title>ini-cross</title><path d="M233.8,420.94l-74.43-74.43a45.14,45.14,0,0,1,63.83-63.84l74.44,74.44,74.43-74.44a45.14,45.14,0,0,1,63.84,63.84l-74.44,74.43,74.44,74.44a45.14,45.14,0,0,1-63.84,63.84l-74.43-74.44L223.2,559.22a45.14,45.14,0,0,1-63.83-63.84Z" transform="translate(-82.4 -205.71)" style="fill:#fff;fill-rule:evenodd"/><path d="M245.83,420.94,165.38,340.5a36.64,36.64,0,0,1,51.81-51.81l80.45,80.44,80.45-80.44A36.64,36.64,0,0,1,429.9,340.5l-80.45,80.44,80.45,80.45a36.64,36.64,0,1,1-51.81,51.81l-80.45-80.44L217.19,553.2a36.64,36.64,0,1,1-51.81-51.81Z" transform="translate(-82.4 -205.71)" style="fill:#1a1151;fill-rule:evenodd"/><path d="M169.39,505.4l84.45-84.46-84.45-84.45a31,31,0,0,1,43.79-43.8l84.46,84.46,84.46-84.46a31,31,0,0,1,43.79,43.8l-84.46,84.45,84.46,84.46a31,31,0,0,1-43.79,43.8l-84.46-84.46L213.18,549.2a31,31,0,0,1-43.79-43.8" transform="translate(-82.4 -205.71)" style="fill:#1a1151;fill-rule:evenodd"/><path d="M169.39,505.4l84.45-84.46-84.45-84.45a31,31,0,0,1,43.79-43.8l84.46,84.46,84.46-84.46a31,31,0,0,1,43.79,43.8l-84.46,84.45,84.46,84.46a31,31,0,0,1-43.79,43.8l-84.46-84.46L213.18,549.2a31,31,0,0,1-43.79-43.8" transform="translate(-82.4 -205.71)" style="fill-rule:evenodd;fill:url(#linear-gradient)"/><g style="clip-path:url(#clip-path)"><path d="M447,213.66H148.29A57.93,57.93,0,0,0,90.36,271.6V570.29a57.93,57.93,0,0,0,57.93,57.94H447a57.94,57.94,0,0,0,57.93-57.94V271.6A57.94,57.94,0,0,0,447,213.66" transform="translate(-82.4 -205.71)" style="fill-rule:evenodd;fill:url(#linear-gradient-2)"/><g style="clip-path:url(#clip-path-2)"><rect x="7.95" y="7.95" width="414.56" height="414.56" style="fill:url(#linear-gradient-18)"/></g><path d="M148.29,628.23a57.93,57.93,0,0,1-57.93-57.94V271.6a57.93,57.93,0,0,1,57.93-57.94H447a57.94,57.94,0,0,1,57.93,57.94V570.29A57.94,57.94,0,0,1,447,628.23Zm0,7.95H447a66,66,0,0,0,65.88-65.89V271.6A66,66,0,0,0,447,205.71H148.29A66,66,0,0,0,82.4,271.6V570.29A66,66,0,0,0,148.29,636.18Z" transform="translate(-82.4 -205.71)" style="fill:url(#linear-gradient-19)"/><g style="opacity:0.20000000298023224"><rect x="7.95" y="7.95" width="414.56" height="414.56" style="fill:url(#linear-gradient-8)"/><g style="clip-path:url(#clip-path-3)"><path d="M141.88,627.87c13.45-30,78.07-52.68,155.76-52.68S440,597.91,453.39,627.87a58.82,58.82,0,0,1-6.4.36H148.29a59,59,0,0,1-6.41-.36" transform="translate(-82.4 -205.71)" style="fill:url(#linear-gradient-21)"/><path d="M456,214.35c-.92,35.18-71.44,63.58-158.31,63.58s-157.4-28.4-158.31-63.58a58.77,58.77,0,0,1,9-.69H447a58.87,58.87,0,0,1,9,.69" transform="translate(-82.4 -205.71)" style="fill:url(#linear-gradient-22)"/><path d="M90.36,413.32c21.42,6.26,40.23,23.76,49.28,42.61,10.49,21.84,6.45,42.46,5.21,48.31-5.19,24.6-24.57,57.38-54.49,63.33Z" transform="translate(-82.4 -205.71)" style="fill:url(#linear-gradient-23)"/><path d="M468.85,433.7a96.42,96.42,0,0,1,36.07-4.59V560.45a80.16,80.16,0,0,1-19.83.76c-27.69-2.26-67.47-20.43-71.87-55.63-4.46-35.65,29.17-62.88,55.63-71.88" transform="translate(-82.4 -205.71)" style="fill:url(#linear-gradient-24)"/><path d="M90.72,265.14c23.6,5,47.05,17.79,62.26,35.85,33.06,39.27,28.27,104.73,7.18,114.92-13,6.28-23.23-12.78-69.8-28.73V271.6a57.34,57.34,0,0,1,.36-6.46" transform="translate(-82.4 -205.71)" style="fill:url(#linear-gradient-25)"/><path d="M430.1,400.68c-23.94-14.14-35.77-55-22.77-82,14.51-30.14,58.86-40.73,97.59-31.9V401.14l-1.77-.07c-44.21-1.53-55.52,10-73-.39" transform="translate(-82.4 -205.71)" style="fill:url(#linear-gradient-26)"/></g></g><path d="M431.36,254.94H163.92a32.29,32.29,0,0,0-32.29,32.29V554.66A32.29,32.29,0,0,0,163.92,587H431.36a32.29,32.29,0,0,0,32.28-32.29V287.23a32.28,32.28,0,0,0-32.28-32.29" transform="translate(-82.4 -205.71)" style="fill-rule:evenodd;fill:url(#linear-gradient-9)"/><g style="clip-path:url(#clip-path-4)"><rect x="49.23" y="49.23" width="332.01" height="332.01" style="fill:url(#linear-gradient-28)"/></g><g style="opacity:0.10000000149011612"><rect x="49.23" y="49.23" width="332.01" height="185.38" style="fill:url(#linear-gradient-10)"/><g style="clip-path:url(#clip-path-5)"><path d="M297.64,388.84c65.05,0,123.82,19.73,166,51.48V287.23a32.29,32.29,0,0,0-32.29-32.29H163.92a32.29,32.29,0,0,0-32.29,32.29V440.32c42.19-31.75,101-51.48,166-51.48" transform="translate(-82.4 -205.71)" style="fill:url(#linear-gradient-10)"/></g></g><g style="mask:url(#mask)"><rect x="49.23" y="49.23" width="327.6" height="322.63" style="fill:url(#linear-gradient-11)"/><g style="clip-path:url(#clip-path-6)"><path d="M131.63,287.23V554.66a32.18,32.18,0,0,0,9.54,22.91,32.15,32.15,0,0,1-4.41-16.24V293.9a32.29,32.29,0,0,1,32.29-32.29H436.49A32.16,32.16,0,0,1,459.23,271a32.25,32.25,0,0,0-27.88-16.05H163.92a32.29,32.29,0,0,0-32.29,32.29" transform="translate(-82.4 -205.71)" style="fill-rule:evenodd;fill:url(#linear-gradient-11)"/><g style="clip-path:url(#clip-path-7)"><rect x="49.23" y="49.23" width="327.6" height="322.63" style="fill:url(#linear-gradient-33)"/></g></g></g><g style="opacity:0.30000001192092896"><rect x="49.23" y="225.23" width="332.01" height="156.01" style="fill:url(#linear-gradient-13)"/><g style="clip-path:url(#clip-path-8)"><g style="opacity:0.699999988079071"><rect x="49.23" y="225.23" width="332.01" height="156.01" style="fill:url(#linear-gradient-13)"/><g style="clip-path:url(#clip-path-8)"><path d="M131.63,459.87c38.91-20.07,87.93-31,140.72-28.61C357,435,429,471.84,463.64,522.66v32A32.29,32.29,0,0,1,431.35,587H163.92a32.29,32.29,0,0,1-32.29-32.29Z" transform="translate(-82.4 -205.71)" style="fill:url(#linear-gradient-36)"/></g></g><path d="M134.44,567.86c40.84-42.14,111.38-68.26,190.35-64.74,53.38,2.38,101.72,17.9,138.85,41.79v9.75A32.29,32.29,0,0,1,431.35,587H163.92a32.31,32.31,0,0,1-29.48-19.09" transform="translate(-82.4 -205.71)" style="fill:url(#linear-gradient-37)"/></g></g><g style="opacity:0.800000011920929"><rect x="49.23" y="341.26" width="332.01" height="39.98" style="fill:url(#linear-gradient-15)"/><g style="clip-path:url(#clip-path-10)"><path d="M163.92,587H431.35a32.28,32.28,0,0,0,32.29-32.29V547a32.29,32.29,0,0,1-32.29,32.29H163.92A32.29,32.29,0,0,1,131.63,547v7.69A32.29,32.29,0,0,0,163.92,587" transform="translate(-82.4 -205.71)" style="fill:url(#linear-gradient-15)"/></g></g><g style="opacity:0.800000011920929"><rect x="65.06" y="339.74" width="25.78" height="25.78" style="fill:url(#linear-gradient-3)"/><g style="clip-path:url(#clip-path-11)"><path d="M147.46,558.34a12.89,12.89,0,1,1,12.89,12.89,12.9,12.9,0,0,1-12.89-12.89" transform="translate(-82.4 -205.71)" style="fill:url(#linear-gradient-3)"/></g></g><g style="opacity:0.800000011920929"><rect x="99.88" y="352.63" width="12.89" height="12.89" style="fill:url(#linear-gradient-4)"/><g style="clip-path:url(#clip-path-12)"><path d="M182.29,564.79a6.45,6.45,0,1,1,6.44,6.44,6.44,6.44,0,0,1-6.44-6.44" transform="translate(-82.4 -205.71)" style="fill:url(#linear-gradient-4)"/></g></g><g style="opacity:0.800000011920929"><rect x="353" y="348.04" width="12.89" height="12.89" style="fill:url(#linear-gradient-5)"/><g style="clip-path:url(#clip-path-13)"><path d="M435.4,560.2a6.45,6.45,0,1,1,6.45,6.44,6.45,6.45,0,0,1-6.45-6.44" transform="translate(-82.4 -205.71)" style="fill:url(#linear-gradient-45)"/></g></g><g style="opacity:0.30000001192092896"><rect x="7.95" y="358.68" width="414.56" height="63.83" style="fill:url(#linear-gradient-6)"/><g style="clip-path:url(#clip-path-14)"><path d="M148.29,628.23H447a57.94,57.94,0,0,0,57.93-57.94v-5.9A57.94,57.94,0,0,1,447,622.33H148.29a57.93,57.93,0,0,1-57.93-57.94v5.9a57.93,57.93,0,0,0,57.93,57.94" transform="translate(-82.4 -205.71)" style="fill:url(#linear-gradient-47)"/></g></g><g style="opacity:0.20000000298023224"><rect x="7.95" y="7.95" width="414.56" height="64.6" style="fill:url(#linear-gradient-7)"/><g style="clip-path:url(#clip-path-15)"><path d="M148.29,220.33H447a57.94,57.94,0,0,1,57.93,57.94V271.6A57.94,57.94,0,0,0,447,213.66H148.29A57.93,57.93,0,0,0,90.36,271.6v6.67a57.93,57.93,0,0,1,57.93-57.94" transform="translate(-82.4 -205.71)" style="fill:url(#linear-gradient-7)"/></g></g></g></svg>