<svg id="Layer_1" data-name="Layer 1" xmlns="http://www.w3.org/2000/svg" xmlns:xlink="http://www.w3.org/1999/xlink" viewBox="0 0 325.71 325.71"><defs><linearGradient id="linear-gradient" x1="134.78" y1="420.94" x2="460.49" y2="420.94" gradientUnits="userSpaceOnUse"><stop offset="0.24" stop-color="#9b1d9f"/><stop offset="0.43" stop-color="#ad2984"/><stop offset="0.62" stop-color="#bb3270"/><stop offset="0.81" stop-color="#c33763"/><stop offset="1" stop-color="#c6395f"/></linearGradient></defs><title>ini-circle</title><path d="M297.64,525.61A104.67,104.67,0,1,1,402.3,420.94,104.67,104.67,0,0,1,297.64,525.61m0-248.19A143.53,143.53,0,1,1,154.12,420.94,143.53,143.53,0,0,1,297.64,277.42Z" transform="translate(-134.78 -258.09)" style="fill:#451151;fill-rule:evenodd"/><path d="M297.64,539.71A118.77,118.77,0,1,1,416.4,420.94,118.77,118.77,0,0,1,297.64,539.71m0-281.62A162.86,162.86,0,1,1,134.78,420.94,162.85,162.85,0,0,1,297.64,258.09Z" transform="translate(-134.78 -258.09)" style="fill-rule:evenodd;fill:url(#linear-gradient)"/><path d="M297.64,539.71A118.77,118.77,0,1,1,416.4,420.94,118.77,118.77,0,0,1,297.64,539.71m0-261.78a143,143,0,1,1-143,143A143,143,0,0,1,297.64,277.93Z" transform="translate(-134.78 -258.09)" style="fill:#fff;fill-rule:evenodd"/></svg>