<svg id="Layer_1" data-name="Layer 1" xmlns="http://www.w3.org/2000/svg" xmlns:xlink="http://www.w3.org/1999/xlink" viewBox="0 0 681.28 798.53"><defs><style>.cls-1{mask:url(#mask);}.cls-2{mix-blend-mode:multiply;fill:url(#linear-gradient);}.cls-3{fill:none;}.cls-4{fill:url(#linear-gradient-2);}.cls-5{fill:#102c19;}.cls-21,.cls-6{opacity:0.2;}.cls-7{clip-path:url(#clip-path);}.cls-17,.cls-18,.cls-20,.cls-8{fill:#fff;}.cls-12,.cls-21,.cls-9{fill:#010101;}.cls-10{fill:#4e4e4e;}.cls-11{fill:url(#linear-gradient-3);}.cls-12{opacity:0.1;}.cls-13{mask:url(#mask-2);}.cls-14{fill:url(#linear-gradient-4);}.cls-15,.cls-20{opacity:0.3;}.cls-16{clip-path:url(#clip-path-2);}.cls-17{opacity:0.7;}.cls-18{opacity:0.8;}.cls-19{fill:#d1ebe7;}.cls-22{filter:url(#luminosity-noclip-2);}.cls-23{filter:url(#luminosity-noclip);}</style><filter id="luminosity-noclip" x="107.8" y="-8613" width="385.86" height="32766" filterUnits="userSpaceOnUse" color-interpolation-filters="sRGB"><feFlood flood-color="#fff" result="bg"/><feBlend in="SourceGraphic" in2="bg"/></filter><mask id="mask" x="107.8" y="-8613" width="385.86" height="32766" maskUnits="userSpaceOnUse"><g class="cls-23"/></mask><linearGradient id="linear-gradient" x1="202.53" y1="785.62" x2="571.28" y2="416.87" gradientUnits="userSpaceOnUse"><stop offset="0"/><stop offset="0.27" stop-color="#fff"/><stop offset="1"/></linearGradient><linearGradient id="linear-gradient-2" x1="338.9" y1="722.83" x2="338.9" y2="234.54" gradientUnits="userSpaceOnUse"><stop offset="0.24" stop-color="#2c9f48"/><stop offset="0.31" stop-color="#31a55f"/><stop offset="0.45" stop-color="#3aae84"/><stop offset="0.59" stop-color="#40b6a1"/><stop offset="0.73" stop-color="#45bbb5"/><stop offset="0.87" stop-color="#48bec2"/><stop offset="1" stop-color="#49bfc6"/></linearGradient><clipPath id="clip-path" transform="translate(40.77 -33.8)"><rect class="cls-3" x="53.99" y="268.34" width="488.29" height="488.29" rx="68.23"/></clipPath><linearGradient id="linear-gradient-3" x1="338.9" y1="674.21" x2="338.9" y2="283.15" gradientUnits="userSpaceOnUse"><stop offset="0" stop-color="#5dc2a7"/><stop offset="1" stop-color="#71a1d5"/></linearGradient><filter id="luminosity-noclip-2" x="107.8" y="328" width="385.86" height="380.01" filterUnits="userSpaceOnUse" color-interpolation-filters="sRGB"><feFlood flood-color="#fff" result="bg"/><feBlend in="SourceGraphic" in2="bg"/></filter><mask id="mask-2" x="148.57" y="294.2" width="385.86" height="380.01" maskUnits="userSpaceOnUse"><g class="cls-22"><g transform="translate(40.77 -33.8)"><g class="cls-1"><path class="cls-2" d="M482.42,328a37.87,37.87,0,0,1,5.2,19.13v315a38,38,0,0,1-38,38h-315a37.9,37.9,0,0,1-26.79-11A38,38,0,0,0,140.63,708h315a38,38,0,0,0,38-38V355A37.9,37.9,0,0,0,482.42,328Z"/></g></g></g></mask><linearGradient id="linear-gradient-4" x1="202.53" y1="785.62" x2="571.28" y2="416.87" gradientUnits="userSpaceOnUse"><stop offset="0" stop-color="#afe1f0"/><stop offset="0.27" stop-color="#afe1f0"/><stop offset="1" stop-color="#afe1f0"/></linearGradient><clipPath id="clip-path-2" transform="translate(40.77 -33.8)"><rect class="cls-3" x="102.6" y="316.96" width="391.06" height="391.06" rx="38.03"/></clipPath></defs><title>jade</title><g id="light_blue"><rect class="cls-4" x="94.75" y="234.54" width="488.29" height="488.29" rx="68.23"/><path class="cls-5" d="M474,268.34a68.24,68.24,0,0,1,68.24,68.23V688.39A68.24,68.24,0,0,1,474,756.63H122.22A68.24,68.24,0,0,1,54,688.39V336.57a68.23,68.23,0,0,1,68.23-68.23H474m0-9.37H122.22a77.69,77.69,0,0,0-77.6,77.6V688.39a77.69,77.69,0,0,0,77.6,77.6H474a77.69,77.69,0,0,0,77.6-77.6V336.57A77.69,77.69,0,0,0,474,259Z" transform="translate(40.77 -33.8)"/><g class="cls-6"><g class="cls-7"><ellipse class="cls-8" cx="338.9" cy="221.3" rx="186.49" ry="75.7"/><ellipse class="cls-9" cx="338.9" cy="722.83" rx="186.49" ry="75.7"/><path class="cls-10" d="M629.49,414.37c8,39.55-7.59,95.44-51,107.67-38.46,10.83-78.66-18.28-94.26-50.76-12.36-25.72-7.6-50-6.14-56.91,6.76-32,33.91-75.8,75.7-75.7C596.1,338.77,622.92,382.12,629.49,414.37Z" transform="translate(40.77 -33.8)"/><path class="cls-10" d="M96.48,497.46c-38.21,13-95.64,4.54-113.25-37-15.61-36.79,8.19-80.34,38.43-99.92,24-15.51,48.66-13.86,55.68-13.29C110,349.93,156.81,371.34,162,412.8,167.25,454.79,127.64,486.86,96.48,497.46Z" transform="translate(40.77 -33.8)"/><path class="cls-9" d="M624.46,577.73C646.59,601.86,645.91,652,622,677.94c-34.87,37.88-115.73,20.66-153.48-24.17-38.95-46.25-33.3-123.36-8.46-135.36,15.31-7.4,27.35,15.06,82.22,33.84C591.56,569.13,608.25,560,624.46,577.73Z" transform="translate(40.77 -33.8)"/><path class="cls-9" d="M142.11,536.35c28.2,16.65,42.13,64.79,26.82,96.59-22.34,46.4-104.71,53.45-153.88,21.54-50.71-32.91-67.75-108.32-47.48-127,12.49-11.53,30.55,6.44,88.51,8.45C108.14,537.7,121.46,524.15,142.11,536.35Z" transform="translate(40.77 -33.8)"/></g></g><rect class="cls-11" x="143.37" y="283.15" width="391.06" height="391.06" rx="38.03"/><path class="cls-12" d="M298.13,550.3c-76.61,0-145.84-23.24-195.53-60.64V670a38,38,0,0,0,38,38h315a38,38,0,0,0,38-38V489.66C444,527.06,374.75,550.3,298.13,550.3Z" transform="translate(40.77 -33.8)"/><g class="cls-13"><path class="cls-14" d="M482.42,328a37.87,37.87,0,0,1,5.2,19.13v315a38,38,0,0,1-38,38h-315a37.9,37.9,0,0,1-26.79-11A38,38,0,0,0,140.63,708h315a38,38,0,0,0,38-38V355A37.9,37.9,0,0,0,482.42,328Z" transform="translate(40.77 -33.8)"/></g><g class="cls-15"><g class="cls-16"><ellipse class="cls-17" cx="275.61" cy="300.64" rx="182.45" ry="259.68" transform="translate(-46.79 452.46) rotate(-74.56)"/><ellipse class="cls-8" cx="227.08" cy="222.82" rx="182.45" ry="259.68" transform="translate(-7.38 348.58) rotate(-74.56)"/></g></g><path class="cls-18" d="M455.63,317h-315a38,38,0,0,0-38,38v9.06a38,38,0,0,1,38-38h315a38,38,0,0,1,38,38V355A38,38,0,0,0,455.63,317Z" transform="translate(40.77 -33.8)"/><circle class="cls-18" cx="459.83" cy="350.65" r="15.18" transform="translate(-72.5 394.05) rotate(-45)"/><circle class="cls-18" cx="467.17" cy="309.26" r="7.59"/><circle class="cls-18" cx="128.28" cy="348.47" r="7.59" transform="translate(-82.82 41.81) rotate(-22.5)"/><circle class="cls-19" cx="511.7" cy="636.28" r="6.57"/><path class="cls-19" d="M457.3,686.27a5,5,0,1,1-5-5A5,5,0,0,1,457.3,686.27Z" transform="translate(40.77 -33.8)"/><path class="cls-20" d="M474,268.34H122.22A68.23,68.23,0,0,0,54,336.57v6.95a68.23,68.23,0,0,1,68.23-68.23H474a68.24,68.24,0,0,1,68.24,68.23v-6.95A68.24,68.24,0,0,0,474,268.34Z" transform="translate(40.77 -33.8)"/><path class="cls-21" d="M474,748.77H122.22A68.23,68.23,0,0,1,54,680.54v7.85a68.24,68.24,0,0,0,68.23,68.24H474a68.24,68.24,0,0,0,68.24-68.24v-7.85A68.24,68.24,0,0,1,474,748.77Z" transform="translate(40.77 -33.8)"/></g></svg>