<svg id="Layer_1" data-name="Layer 1" xmlns="http://www.w3.org/2000/svg" xmlns:xlink="http://www.w3.org/1999/xlink" viewBox="0 0 690.74 788.9"><defs><style>.cls-1{mask:url(#mask);}.cls-2{mix-blend-mode:multiply;fill:url(#linear-gradient);}.cls-3{fill:none;}.cls-4{fill:url(#linear-gradient-2);}.cls-5{fill:#451952;}.cls-21,.cls-6{opacity:0.2;}.cls-7{clip-path:url(#clip-path);}.cls-17,.cls-18,.cls-20,.cls-8{fill:#fff;}.cls-12,.cls-21,.cls-9{fill:#010101;}.cls-10{fill:#4d4d4e;}.cls-11{fill:url(#linear-gradient-3);}.cls-12{opacity:0.1;}.cls-13{mask:url(#mask-2);}.cls-14{fill:url(#linear-gradient-4);}.cls-15,.cls-20{opacity:0.3;}.cls-16{clip-path:url(#clip-path-2);}.cls-17{opacity:0.7;}.cls-18{opacity:0.8;}.cls-19{fill:#f8c2da;}.cls-22{filter:url(#luminosity-noclip-2);}.cls-23{filter:url(#luminosity-noclip);}</style><filter id="luminosity-noclip" x="117.67" y="-8613" width="385.86" height="32766" filterUnits="userSpaceOnUse" color-interpolation-filters="sRGB"><feFlood flood-color="#fff" result="bg"/><feBlend in="SourceGraphic" in2="bg"/></filter><mask id="mask" x="117.67" y="-8613" width="385.86" height="32766" maskUnits="userSpaceOnUse"><g class="cls-23"/></mask><linearGradient id="linear-gradient" x1="212.4" y1="781.14" x2="581.15" y2="412.38" gradientUnits="userSpaceOnUse"><stop offset="0"/><stop offset="0.27" stop-color="#fff"/><stop offset="1"/></linearGradient><linearGradient id="linear-gradient-2" x1="348.36" y1="713.2" x2="348.36" y2="224.91" gradientUnits="userSpaceOnUse"><stop offset="0.24" stop-color="#953293"/><stop offset="0.35" stop-color="#a23485"/><stop offset="0.57" stop-color="#b63771"/><stop offset="0.79" stop-color="#c23964"/><stop offset="1" stop-color="#c63a60"/></linearGradient><clipPath id="clip-path" transform="translate(40.36 -38.94)"><rect class="cls-3" x="63.86" y="263.86" width="488.29" height="488.29" rx="68.23"/></clipPath><linearGradient id="linear-gradient-3" x1="348.36" y1="664.59" x2="348.36" y2="273.53" gradientUnits="userSpaceOnUse"><stop offset="0" stop-color="#d8308e"/><stop offset="1" stop-color="#f15f52"/></linearGradient><filter id="luminosity-noclip-2" x="117.67" y="323.52" width="385.86" height="380.01" filterUnits="userSpaceOnUse" color-interpolation-filters="sRGB"><feFlood flood-color="#fff" result="bg"/><feBlend in="SourceGraphic" in2="bg"/></filter><mask id="mask-2" x="158.03" y="284.58" width="385.86" height="380.01" maskUnits="userSpaceOnUse"><g class="cls-22"><g transform="translate(40.36 -38.94)"><g class="cls-1"><path class="cls-2" d="M492.29,323.52a37.82,37.82,0,0,1,5.2,19.13v315a38,38,0,0,1-38,38h-315a37.92,37.92,0,0,1-26.79-11,38,38,0,0,0,32.83,18.9h315a38,38,0,0,0,38-38v-315A37.9,37.9,0,0,0,492.29,323.52Z"/></g></g></g></mask><linearGradient id="linear-gradient-4" x1="212.4" y1="781.14" x2="581.15" y2="412.38" gradientUnits="userSpaceOnUse"><stop offset="0" stop-color="#f596ac"/><stop offset="0.27" stop-color="#f596ac"/><stop offset="1" stop-color="#f596ac"/></linearGradient><clipPath id="clip-path-2" transform="translate(40.36 -38.94)"><rect class="cls-3" x="112.47" y="312.47" width="391.06" height="391.06" rx="38.03"/></clipPath></defs><title>purple</title><g id="pink"><rect class="cls-4" x="104.22" y="224.91" width="488.29" height="488.29" rx="68.23"/><path class="cls-5" d="M483.91,263.86a68.23,68.23,0,0,1,68.23,68.23V683.91a68.23,68.23,0,0,1-68.23,68.23H132.09a68.23,68.23,0,0,1-68.23-68.23V332.09a68.23,68.23,0,0,1,68.23-68.23H483.91m0-9.37H132.09a77.69,77.69,0,0,0-77.6,77.6V683.91a77.69,77.69,0,0,0,77.6,77.6H483.91a77.69,77.69,0,0,0,77.6-77.6V332.09a77.69,77.69,0,0,0-77.6-77.6Z" transform="translate(40.36 -38.94)"/><g class="cls-6"><g class="cls-7"><ellipse class="cls-8" cx="348.36" cy="211.68" rx="186.49" ry="75.7"/><ellipse class="cls-9" cx="348.36" cy="713.2" rx="186.49" ry="75.7"/><path class="cls-10" d="M639.36,409.89c8,39.54-7.59,95.44-51,107.66-38.46,10.83-78.66-18.28-94.27-50.76-12.35-25.71-7.59-50-6.13-56.9,6.75-32,33.91-75.8,75.7-75.7C606,334.29,632.78,377.63,639.36,409.89Z" transform="translate(40.36 -38.94)"/><path class="cls-10" d="M106.34,493c-38.2,13-95.63,4.54-113.24-37-15.61-36.79,8.19-80.34,38.43-99.93,23.95-15.51,48.66-13.85,55.68-13.28,32.61,2.66,79.47,24.06,84.66,65.52C177.12,450.3,137.51,482.38,106.34,493Z" transform="translate(40.36 -38.94)"/><path class="cls-9" d="M634.33,573.24c22.13,24.14,21.44,74.24-2.46,100.21C597,711.34,516.14,694.12,478.38,649.28c-38.94-46.24-33.29-123.35-8.46-135.35,15.32-7.4,27.36,15.05,82.22,33.84C601.43,564.64,618.12,555.56,634.33,573.24Z" transform="translate(40.36 -38.94)"/><path class="cls-9" d="M152,531.87c28.2,16.65,42.13,64.78,26.82,96.59C156.46,674.85,74.09,681.91,24.92,650-25.8,617.09-42.83,541.67-22.57,523c12.5-11.54,30.56,6.44,88.51,8.44C118,533.21,131.33,519.67,152,531.87Z" transform="translate(40.36 -38.94)"/></g></g><rect class="cls-11" x="152.83" y="273.53" width="391.06" height="391.06" rx="38.03"/><path class="cls-12" d="M308,545.81c-76.62,0-145.84-23.23-195.53-60.64V665.5a38,38,0,0,0,38,38h315a38,38,0,0,0,38-38V485.17C453.84,522.58,384.62,545.81,308,545.81Z" transform="translate(40.36 -38.94)"/><g class="cls-13"><path class="cls-14" d="M492.29,323.52a37.82,37.82,0,0,1,5.2,19.13v315a38,38,0,0,1-38,38h-315a37.92,37.92,0,0,1-26.79-11,38,38,0,0,0,32.83,18.9h315a38,38,0,0,0,38-38v-315A37.9,37.9,0,0,0,492.29,323.52Z" transform="translate(40.36 -38.94)"/></g><g class="cls-15"><g class="cls-16"><ellipse class="cls-17" cx="282.12" cy="303.88" rx="182.45" ry="259.68" transform="translate(-45.54 455.98) rotate(-74.56)"/><ellipse class="cls-8" cx="214.67" cy="227.96" rx="182.45" ry="259.68" transform="translate(-21.85 335.25) rotate(-74.56)"/></g></g><path class="cls-18" d="M465.5,312.47h-315a38,38,0,0,0-38,38v9.07a38,38,0,0,1,38-38h315a38,38,0,0,1,38,38V350.5A38,38,0,0,0,465.5,312.47Z" transform="translate(40.36 -38.94)"/><circle class="cls-18" cx="469.7" cy="346.17" r="15.18" transform="translate(65.24 684.83) rotate(-76.72)"/><circle class="cls-18" cx="436.27" cy="338.58" r="7.59" transform="translate(-71.27 368.72) rotate(-45)"/><circle class="cls-18" cx="178.51" cy="305.04" r="7.59"/><circle class="cls-19" cx="521.16" cy="626.66" r="6.57"/><path class="cls-19" d="M467.17,681.78a5,5,0,1,1-5-5A5,5,0,0,1,467.17,681.78Z" transform="translate(40.36 -38.94)"/><path class="cls-20" d="M483.91,263.86H132.09a68.23,68.23,0,0,0-68.23,68.23v7a68.24,68.24,0,0,1,68.23-68.24H483.91A68.24,68.24,0,0,1,552.14,339v-7A68.23,68.23,0,0,0,483.91,263.86Z" transform="translate(40.36 -38.94)"/><path class="cls-21" d="M483.91,744.29H132.09a68.24,68.24,0,0,1-68.23-68.24v7.86a68.23,68.23,0,0,0,68.23,68.23H483.91a68.23,68.23,0,0,0,68.23-68.23v-7.86A68.24,68.24,0,0,1,483.91,744.29Z" transform="translate(40.36 -38.94)"/></g></svg>